<svg width="166" height="206" viewBox="0 0 166 206" fill="none" xmlns="http://www.w3.org/2000/svg">
<rect width="166" height="206" fill="url(#paint0_radial_8222_2678)"/>
<path d="M111.341 0H151.02L41.9049 206H7.49026L1.01221 204.713L111.341 0Z" fill="url(#paint1_linear_8222_2678)"/>
<path d="M166 26.1797L165.797 69.0964L85.0241 206.001H70.2461L166 26.1797Z" fill="url(#paint2_linear_8222_2678)"/>
<mask id="mask0_8222_2678" style="mask-type:alpha" maskUnits="userSpaceOnUse" x="17" y="0" width="149" height="206">
<path d="M131.5 0H166V206H17L131.5 0Z" fill="#D9D9D9"/>
</mask>
<g mask="url(#mask0_8222_2678)">
<g filter="url(#filter0_d_8222_2678)">
<rect width="166" height="206" fill="url(#paint3_radial_8222_2678)"/>
</g>
<path d="M111.341 0H151.02L41.9049 206H7.49026L1.01221 204.713L111.341 0Z" fill="url(#paint4_linear_8222_2678)"/>
<path d="M166 26.1797L165.798 69.0964L85.0244 206.001H70.2463L166 26.1797Z" fill="url(#paint5_linear_8222_2678)"/>
</g>
<defs>
<filter id="filter0_d_8222_2678" x="-1" y="0" width="168" height="208" filterUnits="userSpaceOnUse" color-interpolation-filters="sRGB">
<feFlood flood-opacity="0" result="BackgroundImageFix"/>
<feColorMatrix in="SourceAlpha" type="matrix" values="0 0 0 0 0 0 0 0 0 0 0 0 0 0 0 0 0 0 127 0" result="hardAlpha"/>
<feOffset dy="1"/>
<feGaussianBlur stdDeviation="0.5"/>
<feComposite in2="hardAlpha" operator="out"/>
<feColorMatrix type="matrix" values="0 0 0 0 0 0 0 0 0 0 0 0 0 0 0 0 0 0 0.25 0"/>
<feBlend mode="normal" in2="BackgroundImageFix" result="effect1_dropShadow_8222_2678"/>
<feBlend mode="normal" in="SourceGraphic" in2="effect1_dropShadow_8222_2678" result="shape"/>
</filter>
<radialGradient id="paint0_radial_8222_2678" cx="0" cy="0" r="1" gradientUnits="userSpaceOnUse" gradientTransform="translate(83 103) rotate(90) scale(103 126.219)">
<stop stop-color="#6AD788"/>
<stop offset="1" stop-color="#228A45"/>
</radialGradient>
<linearGradient id="paint1_linear_8222_2678" x1="83" y1="1.08965e-07" x2="83" y2="206" gradientUnits="userSpaceOnUse">
<stop stop-color="#24CB67"/>
<stop offset="1" stop-color="#248B60"/>
</linearGradient>
<linearGradient id="paint2_linear_8222_2678" x1="97.7778" y1="0.000518412" x2="97.7778" y2="206.001" gradientUnits="userSpaceOnUse">
<stop stop-color="#24C866"/>
<stop offset="1" stop-color="#238E60"/>
</linearGradient>
<radialGradient id="paint3_radial_8222_2678" cx="0" cy="0" r="1" gradientUnits="userSpaceOnUse" gradientTransform="translate(83 103) rotate(90) scale(103 126.219)">
<stop stop-color="#05A5FF"/>
<stop offset="1" stop-color="#436AB6"/>
</radialGradient>
<linearGradient id="paint4_linear_8222_2678" x1="83" y1="1.08965e-07" x2="83" y2="206" gradientUnits="userSpaceOnUse">
<stop stop-color="#05C3FF"/>
<stop offset="1" stop-color="#434EB6"/>
</linearGradient>
<linearGradient id="paint5_linear_8222_2678" x1="97.7781" y1="0.000518412" x2="97.7781" y2="206.001" gradientUnits="userSpaceOnUse">
<stop stop-color="#05B4FF"/>
<stop offset="1" stop-color="#435CB6"/>
</linearGradient>
</defs>
</svg>
