<svg width="380" height="97" viewBox="0 0 380 97" fill="none" xmlns="http://www.w3.org/2000/svg">
<path d="M77 87.5L83 54.5L90.5 51L83 46L88.4991 21.5L108.235 22.6201C116.171 22.6201 121.931 24.0601 125.515 26.9401C129.099 29.8201 130.891 33.9481 130.891 39.3241C130.891 44.4441 129.707 48.7961 127.339 52.3801C124.971 55.9641 121.579 58.4601 117.163 59.8681V59.9641L128 85L110.5 85.5L102.763 62.3641H96.5232L93 86.5L77 87.5ZM98.3472 50.2681H105.451C108.779 50.2681 111.307 49.5641 113.035 48.1561C114.827 46.6841 115.723 44.3801 115.723 41.2441C115.723 39.1961 115.051 37.7561 113.707 36.9241C112.363 36.0281 110.283 35.5801 107.467 35.5801H100.651L98.3472 50.2681Z" fill="white" fill-opacity="0.2"/>
<path d="M144.5 84.5L147.878 63.7081L134.999 24.5L150.999 25.5L153.926 37.5001C154.502 39.6761 155.014 41.8521 155.462 44.0281C155.91 46.1401 156.326 48.2841 156.71 50.4601H156.902C158.054 48.2841 159.174 46.1401 160.262 44.0281C161.414 41.9161 162.566 39.7721 163.718 37.5961L170.999 26H185.499L162.662 63.7081L160.5 84L144.5 84.5Z" fill="white" fill-opacity="0.2"/>
<path d="M180.5 83.5L207.544 44.8921C208.632 43.3561 209.72 41.8521 210.808 40.3801C211.96 38.8441 213.08 37.3721 214.168 35.9641V35.7721C212.568 35.8361 210.936 35.8681 209.272 35.8681C207.672 35.8681 206.04 35.8681 204.376 35.8681H191.704C191.256 35.8681 190.904 35.7401 190.648 35.4841C190.456 35.2281 190.392 34.9081 190.456 34.5241L191.833 26.2681H237.496C237.624 26.0121 237.432 26.5881 237.496 26.2681C237.688 25.9481 237.368 26.4601 237.496 26.2681L211.096 62.5561C209.944 64.1561 208.728 65.7881 207.448 67.4521C206.232 69.0521 203.645 72.2521 203.645 72.2521C203.645 72.2521 207 72.2521 208.6 72.2521C210.264 72.2521 211.96 72.2521 213.688 72.2521L229 72.1561L226.5 84L180.5 83.5Z" fill="white" fill-opacity="0.2"/>
<path d="M236.5 84L244.999 26L283.499 24.5L281.961 35.8681H258.057L256.329 47.5801L279.499 47L277.499 60L254.313 60.0601L252.297 72.2521L277.999 71.5L275.5 85C260.178 84.5557 253.039 84.4524 236.5 84Z" fill="white" fill-opacity="0.2"/>
<path d="M284.499 85.5L294.499 24L311.499 23L319.56 46.7161C320.648 49.9161 321.608 53.1481 322.44 56.4121C323.272 59.6121 324.04 62.5881 324.744 65.3401H325.032C325.16 62.3961 326.179 59.072 326.499 56C326.115 58.88 326.819 52.864 326.499 56L330.999 21L348.999 19L337 90L317 87L311.208 64.7641C309.928 60.8601 308.808 57.0201 307.848 53.2441C306.888 49.4681 306.024 46.2041 305.256 43.4521H305.064C304.744 46.4601 304.392 49.5641 304.008 52.7641C303.688 55.9641 303.272 59.1001 302.76 62.1721L299.5 86.5L284.499 85.5Z" fill="white" fill-opacity="0.2"/>
<path d="M74.5 82L80 54.4641L90.5 49L81.5 43.5L85.9991 16L105.735 17.1201C113.671 17.1201 119.431 18.5601 123.015 21.4401C126.599 24.3201 128.391 28.4481 128.391 33.8241C128.391 38.9441 127.207 43.2961 124.839 46.8801C122.471 50.4641 119.079 52.9601 114.663 54.3681V54.4641L125.5 79.5L108 80L100.263 56.8641H94.0232L90.5 81L74.5 82ZM95.8472 44.7681H102.951C106.279 44.7681 108.807 44.0641 110.535 42.6561C112.327 41.1841 113.223 38.8801 113.223 35.7441C113.223 33.6961 112.551 32.2561 111.207 31.4241C109.863 30.5281 107.783 30.0801 104.967 30.0801H98.1512L95.8472 44.7681Z" fill="white"/>
<path d="M142 79L145.378 58.2081L132.499 19L148.499 20L151.426 32.0001C152.002 34.1761 152.514 36.3521 152.962 38.5281C153.41 40.6401 153.826 42.7841 154.21 44.9601H154.402C155.554 42.7841 156.674 40.6401 157.762 38.5281C158.914 36.4161 160.066 34.2721 161.218 32.0961L168.499 20.5H182.999L160.162 58.2081L158 78.5L142 79Z" fill="white"/>
<path d="M178 78L205.044 39.3921C206.132 37.8561 207.22 36.3521 208.308 34.8801C209.46 33.3441 210.58 31.8721 211.668 30.4641V30.2721C210.068 30.3361 208.436 30.3681 206.772 30.3681C205.172 30.3681 203.54 30.3681 201.876 30.3681H189.204C188.756 30.3681 188.404 30.2401 188.148 29.9841C187.956 29.7281 187.892 29.4081 187.956 29.0241L189.333 20.7681H234.996C235.124 20.5121 234.932 21.0881 234.996 20.7681C235.188 20.4481 234.868 20.9601 234.996 20.7681L208.596 57.0561C207.444 58.6561 206.228 60.2881 204.948 61.9521C203.732 63.5521 201.145 66.7521 201.145 66.7521C201.145 66.7521 204.5 66.7521 206.1 66.7521C207.764 66.7521 209.46 66.7521 211.188 66.7521L226.5 66.6561L224 78.5L178 78Z" fill="white"/>
<path d="M234 78.5L242.499 20.5L280.999 19L279.461 30.3681H255.557L253.829 42.0801L276.999 41.5L274.999 54.5L251.813 54.5601L249.797 66.7521L275.499 66L273 79.5C257.678 79.0557 250.539 78.9524 234 78.5Z" fill="white"/>
<path d="M281.999 80L291.999 18.5L308.999 17.5L317.06 41.2161C318.148 44.4161 319.108 47.6481 319.94 50.9121C320.772 54.1121 321.54 57.0881 322.244 59.8401H322.532C322.66 56.8961 323.679 53.572 323.999 50.5C323.615 53.38 324.319 47.364 323.999 50.5L328.499 15.5L346.499 13.5L335.5 85C327.299 83.6332 322.701 82.8668 314.5 81.5L308.708 59.2641C307.428 55.3601 306.308 51.5201 305.348 47.7441C304.388 43.9681 303.524 40.7041 302.756 37.9521H302.564C302.244 40.9601 301.892 44.0641 301.508 47.2641C301.188 50.4641 300.772 53.6001 300.26 56.6721L297 81L281.999 80Z" fill="white"/>
<path d="M33.0961 96.656C21.5761 96.656 13.1708 93.6267 7.8801 87.568C2.67477 81.5093 0.925432 73.104 2.6321 62.352L5.9601 41.488C7.66677 30.736 11.5494 22.8 17.6081 17.68C23.6668 12.56 32.1574 10 43.0801 10C50.4188 10 56.5628 11.28 61.5121 13.84C66.5468 16.3147 70.1308 19.8987 72.2641 24.592C74.3974 29.2 74.5918 36.248 74.5918 42.64H55.1121C55.7948 38.544 53.5761 33.552 51.5281 31.248C49.4801 28.944 46.0241 27.792 41.1601 27.792C36.5521 27.792 32.9681 28.9867 30.4081 31.376C27.9334 33.7653 26.3121 37.52 25.5441 42.64C-3.60968 49.7974 -1.61508 54.1826 22.4721 62.096C21.5334 67.728 22.0881 71.952 24.1361 74.768C26.2694 77.4987 29.8961 78.864 35.0161 78.864C39.5388 78.864 42.9948 77.7547 45.3841 75.536C47.7734 73.232 50.9734 68.1973 51.4001 64.016H74.5918C72.2641 74.768 65.5654 83.4293 59.3361 88.72C53.1921 94.0107 44.4454 96.656 33.0961 96.656Z" fill="white" fill-opacity="0.2"/>
<path d="M31.5043 91.408C19.9843 91.408 11.579 88.3786 6.2883 82.32C1.08297 76.2613 -0.666365 67.856 1.0403 57.104L4.3683 36.24C6.07497 25.488 9.95764 17.552 16.0163 12.432C22.075 7.31195 30.5656 4.75195 41.4883 4.75195C48.827 4.75195 54.971 6.03195 59.9203 8.59195C64.955 11.0666 68.539 14.6506 70.6723 19.3439C72.8056 23.952 73 31 73 37.392H53.5203C54.203 33.296 51.9843 28.304 49.9363 26C47.8883 23.696 44.4323 22.544 39.5683 22.544C34.9603 22.544 31.3763 23.7386 28.8163 26.128C26.3416 28.5173 24.7203 32.272 23.9523 37.392C-5.20147 44.5494 -3.20688 48.9346 20.8803 56.848C19.9416 62.48 20.4963 66.704 22.5443 69.52C24.6776 72.2506 28.3043 73.616 33.4243 73.616C37.947 73.616 41.403 72.5066 43.7923 70.2879C46.1816 67.9839 49.3816 62.9493 49.8083 58.768H73C70.6723 69.52 63.9736 78.1813 57.7443 83.472C51.6003 88.7626 42.8536 91.408 31.5043 91.408Z" fill="white"/>
<path d="M366.602 8.87353L374.243 16.4767L362.972 27.6712L361.138 25.8373L360.297 26.6014C361.22 27.7459 361.514 28.3073 361.52 29.1231L360.641 30.0018L353 22.3987L353.879 21.5582C354.842 21.5402 355.403 22.0014 356.4 22.7426L357.203 21.9402L355.369 20.0681L366.602 8.87353Z" fill="white" fill-opacity="0.2"/>
<path d="M367.862 7.72723C371.721 4.21232 376.535 1.95812 379.63 3.48629C380.776 7.03961 379.22 10.3877 375.504 15.254L367.862 7.72723Z" fill="white" fill-opacity="0.2"/>
<path d="M364.602 5.87353L372.243 13.4767L360.972 24.6712L359.138 22.8373L358.297 23.6014C359.22 24.7459 359.514 25.3073 359.52 26.1231L358.641 27.0018L351 19.3987L351.879 18.5582C352.842 18.5402 353.403 19.0014 354.4 19.7426L355.203 18.9402L353.369 17.0681L364.602 5.87353Z" fill="white"/>
<path d="M365.862 4.72723C369.721 1.21232 374.535 -1.04188 377.63 0.48629C378.776 4.03961 377.22 7.38769 373.504 12.254L365.862 4.72723Z" fill="white"/>
</svg>
